<svg xmlns="http://www.w3.org/2000/svg" viewBox="0 0 814.25 1000"><title>apple-19</title><path d="M772.65,531.27C774.06,682.6,905.41,733,906.87,733.6c-1.11,3.55-21,71.77-69.21,142.23C796,936.75,752.73,997.44,684.58,998.7c-67,1.23-88.49-39.71-165-39.71s-100.45,38.45-163.83,40.94c-65.78,2.49-115.87-65.87-157.89-126.56-85.88-124.16-151.5-350.83-63.38-503.84,43.77-76,122-124.1,206.91-125.33,64.6-1.24,125.56,43.45,165,43.45s113.54-53.74,191.43-45.85C730.43,243.16,822,255,880.72,341c-4.73,2.93-109.2,63.75-108.07,190.27M646.81,159.67c34.93-42.28,58.43-101.12,52-159.67C648.49,2,587.62,33.54,551.52,75.79c-32.36,37.41-60.7,97.29-53,154.68,56.11,4.34,113.42-28.51,148.34-70.8" transform="translate(-92.62)"/></svg>